<?xml version="1.0" encoding="UTF-8" standalone="no"?><svg xmlns="http://www.w3.org/2000/svg" xmlns:xlink="http://www.w3.org/1999/xlink" contentScriptType="application/ecmascript" contentStyleType="text/css" height="68px" preserveAspectRatio="none" style="width:199px;height:68px;" version="1.1" viewBox="0 0 199 68" width="199px" zoomAndPan="magnify"><defs/><g><text fill="#000000" font-family="sans-serif" font-size="12" lengthAdjust="spacingAndGlyphs" textLength="33" x="6" y="31.1074">Login</text><text fill="#000000" font-family="sans-serif" font-size="12" lengthAdjust="spacingAndGlyphs" textLength="101" x="68" y="31.1074">security@yyb.ca</text><line style="stroke:#000000;stroke-width:1.0;" x1="66" x2="189" y1="33.9375" y2="33.9375"/><line style="stroke:#000000;stroke-width:1.0;" x1="66" x2="66" y1="30.9375" y2="32.9375"/><line style="stroke:#000000;stroke-width:1.0;" x1="189" x2="189" y1="30.9375" y2="32.9375"/><rect fill="#EEEEEE" height="17.9688" rx="5" ry="5" style="stroke:#000000;stroke-width:2.5;" width="52" x="8.5" y="40.4375"/><text fill="#000000" font-family="sans-serif" font-size="12" lengthAdjust="spacingAndGlyphs" textLength="42" x="13.5" y="53.5762">Cancel</text><rect fill="#EEEEEE" height="17.9688" rx="5" ry="5" style="stroke:#000000;stroke-width:2.5;" width="60" x="67.5" y="40.4375"/><text fill="#000000" font-family="sans-serif" font-size="12" lengthAdjust="spacingAndGlyphs" textLength="16" x="89.5" y="53.5762">OK</text><line style="stroke:#000000;stroke-width:1.0;" x1="5" x2="64" y1="11.9844" y2="11.9844"/><line style="stroke:#000000;stroke-width:1.0;" x1="64" x2="192" y1="11.9844" y2="11.9844"/><line style="stroke:#000000;stroke-width:1.0;" x1="5" x2="64" y1="61.9063" y2="61.9063"/><line style="stroke:#000000;stroke-width:1.0;" x1="64" x2="192" y1="61.9063" y2="61.9063"/><line style="stroke:#000000;stroke-width:1.0;" x1="5" x2="5" y1="11.9844" y2="36.9375"/><line style="stroke:#000000;stroke-width:1.0;" x1="192" x2="192" y1="36.9375" y2="61.9063"/><line style="stroke:#000000;stroke-width:1.0;" x1="192" x2="192" y1="11.9844" y2="36.9375"/><line style="stroke:#000000;stroke-width:1.0;" x1="5" x2="5" y1="36.9375" y2="61.9063"/><rect fill="#FFFFFF" height="13.9688" style="stroke:#FFFFFF;stroke-width:1.0;" width="167" x="11" y="5"/><text fill="#000000" font-family="sans-serif" font-size="12" lengthAdjust="spacingAndGlyphs" textLength="167" x="11" y="16.1387">Authenticate to third party</text><!--MD5=[ad7030eb083f7916b8b07ecbcfed9ed2]
@startsalt AuthTrusted
{^"Authenticate to third party"
  Login    | "security@yyb.ca"
  [Cancel] | [  OK   ]
}

@endsalt

PlantUML version 1.2020.22(Sun Dec 06 04:36:27 EST 2020)
(GPL source distribution)
Java Runtime: OpenJDK Runtime Environment
JVM: OpenJDK 64-Bit Server VM
Default Encoding: UTF-8
Language: en
Country: CA
--></g></svg>