<?xml version="1.0" encoding="UTF-8" standalone="no"?><svg xmlns="http://www.w3.org/2000/svg" xmlns:xlink="http://www.w3.org/1999/xlink" contentScriptType="application/ecmascript" contentStyleType="text/css" height="391px" preserveAspectRatio="none" style="width:246px;height:391px;" version="1.1" viewBox="0 0 246 391" width="246px" zoomAndPan="magnify"><defs/><g><path d="M11.6667,9.4635 C10.3833,9.4635 9.3333,10.7702 9.3333,12.3802 C9.3333,13.9902 10.3833,15.2969 11.6667,15.2969 C12.95,15.2969 14,13.9902 14,12.3802 C14,10.7702 12.95,9.4635 11.6667,9.4635 M9.2283,15.2969 C7.9917,15.3552 7,16.3702 7,17.6302 L7,18.7969 L16.3333,18.7969 L16.3333,17.6302 C16.3333,16.3702 15.3533,15.3552 14.105,15.2969 C13.475,16.0085 12.6117,16.4635 11.6667,16.4635 C10.7217,16.4635 9.8583,16.0085 9.2283,15.2969 " fill="#000000" style="stroke:;stroke-width:0.0;stroke-dasharray:;"/><text fill="#000000" font-family="sans-serif" font-size="14" font-weight="bold" lengthAdjust="spacingAndGlyphs" textLength="36" x="22.3333" y="18.9951">jskw</text><text fill="#000000" font-family="sans-serif" font-size="12" lengthAdjust="spacingAndGlyphs" textLength="56" x="16" y="35.4355">Direction</text><text fill="#000000" font-family="sans-serif" font-size="12" lengthAdjust="spacingAndGlyphs" textLength="73" x="82" y="35.4355">315° (NNW)</text><text fill="#000000" font-family="sans-serif" font-size="12" lengthAdjust="spacingAndGlyphs" textLength="40" x="16" y="49.4043">Range</text><text fill="#000000" font-family="sans-serif" font-size="12" lengthAdjust="spacingAndGlyphs" textLength="43" x="82" y="49.4043">3042m</text><text fill="#000000" font-family="sans-serif" font-size="12" lengthAdjust="spacingAndGlyphs" textLength="48" x="16" y="63.373">Altitude</text><text fill="#000000" font-family="sans-serif" font-size="12" lengthAdjust="spacingAndGlyphs" textLength="27" x="82" y="63.373">30m</text><text fill="#000000" font-family="sans-serif" font-size="12" lengthAdjust="spacingAndGlyphs" textLength="29" x="16" y="77.3418">Type</text><text fill="#000000" font-family="sans-serif" font-size="12" lengthAdjust="spacingAndGlyphs" textLength="27" x="82" y="77.3418">Pilot</text><line style="stroke:#888888;stroke-width:1.0;" x1="6" x2="160" y1="24.2969" y2="24.2969"/><line style="stroke:#888888;stroke-width:1.0;" x1="6" x2="160" y1="38.2656" y2="38.2656"/><line style="stroke:#888888;stroke-width:1.0;" x1="6" x2="160" y1="52.2344" y2="52.2344"/><line style="stroke:#888888;stroke-width:1.0;" x1="6" x2="160" y1="66.2031" y2="66.2031"/><line style="stroke:#888888;stroke-width:1.0;" x1="6" x2="160" y1="80.1719" y2="80.1719"/><line style="stroke:#888888;stroke-width:1.0;" x1="6" x2="6" y1="24.2969" y2="80.1719"/><line style="stroke:#888888;stroke-width:1.0;" x1="77" x2="77" y1="24.2969" y2="80.1719"/><line style="stroke:#888888;stroke-width:1.0;" x1="160" x2="160" y1="24.2969" y2="80.1719"/><path d="M16.3333,85.6354 L7,90.3021 L10.5,91.4688 L11.6667,94.9688 L16.3333,85.6354 " fill="#000000" style="stroke:;stroke-width:0.0;stroke-dasharray:;"/><text fill="#000000" font-family="sans-serif" font-size="14" font-weight="bold" lengthAdjust="spacingAndGlyphs" textLength="51" x="22.3333" y="95.167">jskw.1</text><text fill="#000000" font-family="sans-serif" font-size="12" lengthAdjust="spacingAndGlyphs" textLength="56" x="16" y="111.6074">Direction</text><text fill="#000000" font-family="sans-serif" font-size="12" lengthAdjust="spacingAndGlyphs" textLength="75" x="82" y="111.6074">225° (NWW)</text><text fill="#000000" font-family="sans-serif" font-size="12" lengthAdjust="spacingAndGlyphs" textLength="40" x="16" y="125.5762">Range</text><text fill="#000000" font-family="sans-serif" font-size="12" lengthAdjust="spacingAndGlyphs" textLength="43" x="82" y="125.5762">3042m</text><text fill="#000000" font-family="sans-serif" font-size="12" lengthAdjust="spacingAndGlyphs" textLength="48" x="16" y="139.5449">Altitude</text><text fill="#000000" font-family="sans-serif" font-size="12" lengthAdjust="spacingAndGlyphs" textLength="27" x="82" y="139.5449">30m</text><text fill="#000000" font-family="sans-serif" font-size="12" lengthAdjust="spacingAndGlyphs" textLength="29" x="16" y="153.5137">Type</text><text fill="#000000" font-family="sans-serif" font-size="12" lengthAdjust="spacingAndGlyphs" textLength="112" x="82" y="153.5137">DJI Phantom 4 Pro</text><line style="stroke:#888888;stroke-width:1.0;" x1="6" x2="199" y1="100.4688" y2="100.4688"/><line style="stroke:#888888;stroke-width:1.0;" x1="6" x2="199" y1="114.4375" y2="114.4375"/><line style="stroke:#888888;stroke-width:1.0;" x1="6" x2="199" y1="128.4063" y2="128.4063"/><line style="stroke:#888888;stroke-width:1.0;" x1="6" x2="199" y1="142.375" y2="142.375"/><line style="stroke:#888888;stroke-width:1.0;" x1="6" x2="199" y1="156.3438" y2="156.3438"/><line style="stroke:#888888;stroke-width:1.0;" x1="6" x2="6" y1="100.4688" y2="156.3438"/><line style="stroke:#888888;stroke-width:1.0;" x1="77" x2="77" y1="100.4688" y2="156.3438"/><line style="stroke:#888888;stroke-width:1.0;" x1="199" x2="199" y1="100.4688" y2="156.3438"/><path d="M11.6667,161.8073 C10.3833,161.8073 9.3333,163.114 9.3333,164.724 C9.3333,166.334 10.3833,167.6406 11.6667,167.6406 C12.95,167.6406 14,166.334 14,164.724 C14,163.114 12.95,161.8073 11.6667,161.8073 M9.2283,167.6406 C7.9917,167.699 7,168.714 7,169.974 L7,171.1406 L16.3333,171.1406 L16.3333,169.974 C16.3333,168.714 15.3533,167.699 14.105,167.6406 C13.475,168.3523 12.6117,168.8073 11.6667,168.8073 C10.7217,168.8073 9.8583,168.3523 9.2283,167.6406 " fill="#000000" style="stroke:;stroke-width:0.0;stroke-dasharray:;"/><text fill="#000000" font-family="sans-serif" font-size="14" font-weight="bold" lengthAdjust="spacingAndGlyphs" textLength="28" x="22.3333" y="171.3389">asd</text><text fill="#000000" font-family="sans-serif" font-size="12" lengthAdjust="spacingAndGlyphs" textLength="56" x="16" y="187.7793">Direction</text><text fill="#000000" font-family="sans-serif" font-size="12" lengthAdjust="spacingAndGlyphs" textLength="53" x="82" y="187.7793">45° (NE)</text><text fill="#000000" font-family="sans-serif" font-size="12" lengthAdjust="spacingAndGlyphs" textLength="40" x="16" y="201.748">Range</text><text fill="#000000" font-family="sans-serif" font-size="12" lengthAdjust="spacingAndGlyphs" textLength="43" x="82" y="201.748">3042m</text><text fill="#000000" font-family="sans-serif" font-size="12" lengthAdjust="spacingAndGlyphs" textLength="48" x="16" y="215.7168">Altitude</text><text fill="#000000" font-family="sans-serif" font-size="12" lengthAdjust="spacingAndGlyphs" textLength="19" x="82" y="215.7168">0m</text><text fill="#000000" font-family="sans-serif" font-size="12" lengthAdjust="spacingAndGlyphs" textLength="29" x="16" y="229.6855">Type</text><text fill="#000000" font-family="sans-serif" font-size="12" lengthAdjust="spacingAndGlyphs" textLength="27" x="82" y="229.6855">Pilot</text><line style="stroke:#888888;stroke-width:1.0;" x1="6" x2="140" y1="176.6406" y2="176.6406"/><line style="stroke:#888888;stroke-width:1.0;" x1="6" x2="140" y1="190.6094" y2="190.6094"/><line style="stroke:#888888;stroke-width:1.0;" x1="6" x2="140" y1="204.5781" y2="204.5781"/><line style="stroke:#888888;stroke-width:1.0;" x1="6" x2="140" y1="218.5469" y2="218.5469"/><line style="stroke:#888888;stroke-width:1.0;" x1="6" x2="140" y1="232.5156" y2="232.5156"/><line style="stroke:#888888;stroke-width:1.0;" x1="6" x2="6" y1="176.6406" y2="232.5156"/><line style="stroke:#888888;stroke-width:1.0;" x1="77" x2="77" y1="176.6406" y2="232.5156"/><line style="stroke:#888888;stroke-width:1.0;" x1="140" x2="140" y1="176.6406" y2="232.5156"/><path d="M16.3333,237.9792 L7,242.6458 L10.5,243.8125 L11.6667,247.3125 L16.3333,237.9792 " fill="#000000" style="stroke:;stroke-width:0.0;stroke-dasharray:;"/><text fill="#000000" font-family="sans-serif" font-size="14" font-weight="bold" lengthAdjust="spacingAndGlyphs" textLength="43" x="22.3333" y="247.5107">asd.1</text><text fill="#000000" font-family="sans-serif" font-size="12" lengthAdjust="spacingAndGlyphs" textLength="56" x="16" y="263.9512">Direction</text><text fill="#000000" font-family="sans-serif" font-size="12" lengthAdjust="spacingAndGlyphs" textLength="52" x="82" y="263.9512">180° (S)</text><text fill="#000000" font-family="sans-serif" font-size="12" lengthAdjust="spacingAndGlyphs" textLength="40" x="16" y="277.9199">Range</text><text fill="#000000" font-family="sans-serif" font-size="12" lengthAdjust="spacingAndGlyphs" textLength="43" x="82" y="277.9199">3042m</text><text fill="#000000" font-family="sans-serif" font-size="12" lengthAdjust="spacingAndGlyphs" textLength="48" x="16" y="291.8887">Altitude</text><text fill="#000000" font-family="sans-serif" font-size="12" lengthAdjust="spacingAndGlyphs" textLength="27" x="82" y="291.8887">30m</text><text fill="#000000" font-family="sans-serif" font-size="12" lengthAdjust="spacingAndGlyphs" textLength="29" x="16" y="305.8574">Type</text><text fill="#000000" font-family="sans-serif" font-size="12" lengthAdjust="spacingAndGlyphs" textLength="152" x="82" y="305.8574">PowerVision PowerEgg X</text><line style="stroke:#888888;stroke-width:1.0;" x1="6" x2="239" y1="252.8125" y2="252.8125"/><line style="stroke:#888888;stroke-width:1.0;" x1="6" x2="239" y1="266.7813" y2="266.7813"/><line style="stroke:#888888;stroke-width:1.0;" x1="6" x2="239" y1="280.75" y2="280.75"/><line style="stroke:#888888;stroke-width:1.0;" x1="6" x2="239" y1="294.7188" y2="294.7188"/><line style="stroke:#888888;stroke-width:1.0;" x1="6" x2="239" y1="308.6875" y2="308.6875"/><line style="stroke:#888888;stroke-width:1.0;" x1="6" x2="6" y1="252.8125" y2="308.6875"/><line style="stroke:#888888;stroke-width:1.0;" x1="77" x2="77" y1="252.8125" y2="308.6875"/><line style="stroke:#888888;stroke-width:1.0;" x1="239" x2="239" y1="252.8125" y2="308.6875"/><path d="M16.3333,314.151 L7,318.8177 L10.5,319.9844 L11.6667,323.4844 L16.3333,314.151 " fill="#000000" style="stroke:;stroke-width:0.0;stroke-dasharray:;"/><text fill="#000000" font-family="sans-serif" font-size="14" font-weight="bold" lengthAdjust="spacingAndGlyphs" textLength="43" x="22.3333" y="323.6826">asd.2</text><text fill="#000000" font-family="sans-serif" font-size="12" lengthAdjust="spacingAndGlyphs" textLength="56" x="16" y="340.123">Direction</text><text fill="#000000" font-family="sans-serif" font-size="12" lengthAdjust="spacingAndGlyphs" textLength="60" x="82" y="340.123">135° (SE)</text><text fill="#000000" font-family="sans-serif" font-size="12" lengthAdjust="spacingAndGlyphs" textLength="40" x="16" y="354.0918">Range</text><text fill="#000000" font-family="sans-serif" font-size="12" lengthAdjust="spacingAndGlyphs" textLength="43" x="82" y="354.0918">3042m</text><text fill="#000000" font-family="sans-serif" font-size="12" lengthAdjust="spacingAndGlyphs" textLength="48" x="16" y="368.0605">Altitude</text><text fill="#000000" font-family="sans-serif" font-size="12" lengthAdjust="spacingAndGlyphs" textLength="27" x="82" y="368.0605">50m</text><text fill="#000000" font-family="sans-serif" font-size="12" lengthAdjust="spacingAndGlyphs" textLength="29" x="16" y="382.0293">Type</text><text fill="#000000" font-family="sans-serif" font-size="12" lengthAdjust="spacingAndGlyphs" textLength="152" x="82" y="382.0293">PowerVision PowerEgg X</text><line style="stroke:#888888;stroke-width:1.0;" x1="6" x2="239" y1="328.9844" y2="328.9844"/><line style="stroke:#888888;stroke-width:1.0;" x1="6" x2="239" y1="342.9531" y2="342.9531"/><line style="stroke:#888888;stroke-width:1.0;" x1="6" x2="239" y1="356.9219" y2="356.9219"/><line style="stroke:#888888;stroke-width:1.0;" x1="6" x2="239" y1="370.8906" y2="370.8906"/><line style="stroke:#888888;stroke-width:1.0;" x1="6" x2="239" y1="384.8594" y2="384.8594"/><line style="stroke:#888888;stroke-width:1.0;" x1="6" x2="6" y1="328.9844" y2="384.8594"/><line style="stroke:#888888;stroke-width:1.0;" x1="77" x2="77" y1="328.9844" y2="384.8594"/><line style="stroke:#888888;stroke-width:1.0;" x1="239" x2="239" y1="328.9844" y2="384.8594"/><!--MD5=[62b540507f5996a1e00303ac960db8a8]
@startsalt nav-r2
{
== <&person> jskw
{T#
+ Direction   | 315° (NNW)
+ Range       | 3042m 
+ Altitude    | 30m
+ Type        | Pilot
}
== <&location> jskw.1 
{T#
+ Direction   | 225° (NWW)
+ Range       | 3042m 
+ Altitude    | 30m
+ Type        | DJI Phantom 4 Pro
}
== <&person> asd
{T#
+ Direction   | 45° (NE)
+ Range       | 3042m 
+ Altitude    | 0m
+ Type        | Pilot
}
== <&location> asd.1
{T#
+ Direction   | 180° (S)
+ Range       | 3042m 
+ Altitude    | 30m
+ Type        | PowerVision PowerEgg X
}
== <&location> asd.2
{T#
+ Direction   | 135° (SE)
+ Range       | 3042m 
+ Altitude    | 50m
+ Type        | PowerVision PowerEgg X
}
}
@endsalt

PlantUML version 1.2020.22(Sun Dec 06 04:36:27 EST 2020)
(GPL source distribution)
Java Runtime: OpenJDK Runtime Environment
JVM: OpenJDK 64-Bit Server VM
Default Encoding: UTF-8
Language: en
Country: CA
--></g></svg>