<?xml version="1.0" encoding="UTF-8" standalone="no"?><svg xmlns="http://www.w3.org/2000/svg" xmlns:xlink="http://www.w3.org/1999/xlink" contentScriptType="application/ecmascript" contentStyleType="text/css" height="283px" preserveAspectRatio="none" style="width:853px;height:283px;" version="1.1" viewBox="0 0 853 283" width="853px" zoomAndPan="magnify"><defs/><g><text fill="#000000" font-family="sans-serif" font-size="14" lengthAdjust="spacingAndGlyphs" textLength="59" x="22" y="109.9951">operator</text><text fill="#000000" font-family="sans-serif" font-size="14" lengthAdjust="spacingAndGlyphs" textLength="0" x="110" y="109.9951"/><line style="stroke:#A80036;stroke-width:1.0;" x1="93" x2="93" y1="95" y2="115.2969"/><line style="stroke:#A80036;stroke-width:1.0;" x1="10" x2="115" y1="115.2969" y2="115.2969"/><text fill="#000000" font-family="sans-serif" font-size="14" lengthAdjust="spacingAndGlyphs" textLength="41" x="31" y="130.292">drone</text><text fill="#000000" font-family="sans-serif" font-size="14" lengthAdjust="spacingAndGlyphs" textLength="0" x="110" y="130.292"/><line style="stroke:#A80036;stroke-width:1.0;" x1="93" x2="93" y1="115.2969" y2="135.5938"/><line style="stroke:#A80036;stroke-width:1.0;" x1="10" x2="115" y1="135.5938" y2="135.5938"/><text fill="#000000" font-family="sans-serif" font-size="14" lengthAdjust="spacingAndGlyphs" textLength="73" x="15" y="150.5889">encryption</text><text fill="#000000" font-family="sans-serif" font-size="14" lengthAdjust="spacingAndGlyphs" textLength="0" x="110" y="150.5889"/><line style="stroke:#A80036;stroke-width:1.0;" x1="93" x2="93" y1="135.5938" y2="155.8906"/><rect fill="none" height="60.8906" rx="5" ry="5" style="stroke:#A80036;stroke-width:1.5;" width="105" x="10" y="95"/><text fill="#000000" font-family="sans-serif" font-size="14" lengthAdjust="spacingAndGlyphs" textLength="65" x="173" y="24.9951">firstName</text><text fill="#000000" font-family="sans-serif" font-size="14" lengthAdjust="spacingAndGlyphs" textLength="30" x="248" y="24.9951">John</text><line style="stroke:#A80036;stroke-width:1.0;" x1="243" x2="243" y1="10" y2="30.2969"/><line style="stroke:#A80036;stroke-width:1.0;" x1="168" x2="288" y1="30.2969" y2="30.2969"/><text fill="#000000" font-family="sans-serif" font-size="14" lengthAdjust="spacingAndGlyphs" textLength="64" x="173.5" y="45.292">lastName</text><text fill="#000000" font-family="sans-serif" font-size="14" lengthAdjust="spacingAndGlyphs" textLength="35" x="248" y="45.292">Steel</text><line style="stroke:#A80036;stroke-width:1.0;" x1="243" x2="243" y1="30.2969" y2="50.5938"/><line style="stroke:#A80036;stroke-width:1.0;" x1="168" x2="288" y1="50.5938" y2="50.5938"/><text fill="#000000" font-family="sans-serif" font-size="14" lengthAdjust="spacingAndGlyphs" textLength="51" x="180" y="65.5889">callsign</text><text fill="#000000" font-family="sans-serif" font-size="14" lengthAdjust="spacingAndGlyphs" textLength="30" x="248" y="65.5889">jskw</text><line style="stroke:#A80036;stroke-width:1.0;" x1="243" x2="243" y1="50.5938" y2="70.8906"/><line style="stroke:#A80036;stroke-width:1.0;" x1="168" x2="288" y1="70.8906" y2="70.8906"/><text fill="#000000" font-family="sans-serif" font-size="14" lengthAdjust="spacingAndGlyphs" textLength="54" x="178.5" y="85.8857">location</text><text fill="#000000" font-family="sans-serif" font-size="14" lengthAdjust="spacingAndGlyphs" textLength="0" x="260" y="85.8857"/><line style="stroke:#A80036;stroke-width:1.0;" x1="243" x2="243" y1="70.8906" y2="91.1875"/><rect fill="none" height="81.1875" rx="5" ry="5" style="stroke:#A80036;stroke-width:1.5;" width="120" x="168" y="10"/><text fill="#000000" font-family="sans-serif" font-size="14" lengthAdjust="spacingAndGlyphs" textLength="69" x="346" y="80.4951">ciphertext</text><text fill="#000000" font-family="sans-serif" font-size="14" lengthAdjust="spacingAndGlyphs" textLength="200" x="425" y="80.4951">EncryptedBase64Payload==</text><line style="stroke:#A80036;stroke-width:1.0;" x1="420" x2="420" y1="65.5" y2="85.7969"/><rect fill="none" height="20.2969" rx="5" ry="5" style="stroke:#A80036;stroke-width:1.5;" width="289" x="341" y="65.5"/><text fill="#000000" font-family="sans-serif" font-size="14" lengthAdjust="spacingAndGlyphs" textLength="54" x="190" y="129.4951">location</text><text fill="#000000" font-family="sans-serif" font-size="14" lengthAdjust="spacingAndGlyphs" textLength="0" x="266" y="129.4951"/><line style="stroke:#A80036;stroke-width:1.0;" x1="249" x2="249" y1="114.5" y2="134.7969"/><rect fill="none" height="20.2969" rx="5" ry="5" style="stroke:#A80036;stroke-width:1.5;" width="86" x="185" y="114.5"/><text fill="#000000" font-family="sans-serif" font-size="14" lengthAdjust="spacingAndGlyphs" textLength="16" x="457" y="118.9951">lat</text><text fill="#000000" font-family="sans-serif" font-size="14" lengthAdjust="spacingAndGlyphs" textLength="22" x="507.5" y="118.9951">4.2</text><line style="stroke:#A80036;stroke-width:1.0;" x1="502.5" x2="502.5" y1="104" y2="124.2969"/><line style="stroke:#A80036;stroke-width:1.0;" x1="427.5" x2="543.5" y1="124.2969" y2="124.2969"/><text fill="#000000" font-family="sans-serif" font-size="14" lengthAdjust="spacingAndGlyphs" textLength="65" x="432.5" y="139.292">longitude</text><text fill="#000000" font-family="sans-serif" font-size="14" lengthAdjust="spacingAndGlyphs" textLength="31" x="507.5" y="139.292">44.5</text><line style="stroke:#A80036;stroke-width:1.0;" x1="502.5" x2="502.5" y1="124.2969" y2="144.5938"/><rect fill="none" height="40.5938" rx="5" ry="5" style="stroke:#A80036;stroke-width:1.5;" width="116" x="427.5" y="104"/><text fill="#000000" font-family="sans-serif" font-size="14" lengthAdjust="spacingAndGlyphs" textLength="81" x="160" y="172.9951">isEncrypted</text><text fill="#000000" font-family="sans-serif" font-size="14" lengthAdjust="spacingAndGlyphs" textLength="45" x="254" y="172.9951">☑ true</text><line style="stroke:#A80036;stroke-width:1.0;" x1="249" x2="249" y1="158" y2="178.2969"/><line style="stroke:#A80036;stroke-width:1.0;" x1="152" x2="304" y1="178.2969" y2="178.2969"/><text fill="#000000" font-family="sans-serif" font-size="14" lengthAdjust="spacingAndGlyphs" textLength="87" x="157" y="193.292">sessionKeys</text><text fill="#000000" font-family="sans-serif" font-size="14" lengthAdjust="spacingAndGlyphs" textLength="0" x="266" y="193.292"/><line style="stroke:#A80036;stroke-width:1.0;" x1="249" x2="249" y1="178.2969" y2="198.5938"/><rect fill="none" height="40.5938" rx="5" ry="5" style="stroke:#A80036;stroke-width:1.5;" width="152" x="152" y="158"/><text fill="#000000" font-family="sans-serif" font-size="14" lengthAdjust="spacingAndGlyphs" textLength="0" x="490.5" y="177.9951"/><line style="stroke:#A80036;stroke-width:1.0;" x1="473.5" x2="495.5" y1="183.2969" y2="183.2969"/><text fill="#000000" font-family="sans-serif" font-size="14" lengthAdjust="spacingAndGlyphs" textLength="0" x="490.5" y="198.292"/><line style="stroke:#A80036;stroke-width:1.0;" x1="473.5" x2="495.5" y1="203.5938" y2="203.5938"/><text fill="#000000" font-family="sans-serif" font-size="14" lengthAdjust="spacingAndGlyphs" textLength="0" x="490.5" y="218.5889"/><rect fill="none" height="60.8906" rx="5" ry="5" style="stroke:#A80036;stroke-width:1.5;" width="22" x="473.5" y="163"/><text fill="#000000" font-family="sans-serif" font-size="14" lengthAdjust="spacingAndGlyphs" textLength="48" x="730" y="127.9951">yybKey</text><line style="stroke:#A80036;stroke-width:1.0;" x1="723" x2="785" y1="133.2969" y2="133.2969"/><text fill="#000000" font-family="sans-serif" font-size="14" lengthAdjust="spacingAndGlyphs" textLength="52" x="728" y="148.292">base64</text><rect fill="none" height="40.5938" rx="5" ry="5" style="stroke:#A80036;stroke-width:1.5;" width="62" x="723" y="113"/><text fill="#000000" font-family="sans-serif" font-size="14" lengthAdjust="spacingAndGlyphs" textLength="105" x="701.5" y="186.9951">municipalityKey</text><line style="stroke:#A80036;stroke-width:1.0;" x1="696.5" x2="811.5" y1="192.2969" y2="192.2969"/><text fill="#000000" font-family="sans-serif" font-size="14" lengthAdjust="spacingAndGlyphs" textLength="52" x="728" y="207.292">base64</text><rect fill="none" height="40.5938" rx="5" ry="5" style="stroke:#A80036;stroke-width:1.5;" width="115" x="696.5" y="172"/><text fill="#000000" font-family="sans-serif" font-size="14" lengthAdjust="spacingAndGlyphs" textLength="164" x="672" y="245.9951">myTrustedApiServerKey</text><line style="stroke:#A80036;stroke-width:1.0;" x1="667" x2="841" y1="251.2969" y2="251.2969"/><text fill="#000000" font-family="sans-serif" font-size="14" lengthAdjust="spacingAndGlyphs" textLength="52" x="728" y="266.292">base64</text><rect fill="none" height="40.5938" rx="5" ry="5" style="stroke:#A80036;stroke-width:1.5;" width="174" x="667" y="231"/><path d="M276.5,80.5 L289.5,80.5 C303.8116,80.5 318.7106,80.3644 333.6155,80.138 " fill="none" style="stroke:#A80036;stroke-width:1.0;stroke-dasharray:3.0,3.0;"/><path d="M333.6661,83.2547 L335.953,80.1 L333.5649,77.0212 L341.4073,80.0115 L333.6661,83.2547 " fill="#A80036" style="stroke:#A80036;stroke-width:1.0;"/><ellipse cx="276.5" cy="80.5" fill="#A80036" rx="3" ry="3" style="stroke:#A80036;stroke-width:1.0;"/><path d="M103,104.5 L116,104.5 C131.4339,104.5 146.976,100.2572 161.3531,94.1502 " fill="none" style="stroke:#A80036;stroke-width:1.0;stroke-dasharray:3.0,3.0;"/><path d="M162.608,96.9336 L163.4407,93.209 L160.0981,91.3667 L168.3117,91.0128 L162.608,96.9336 " fill="#A80036" style="stroke:#A80036;stroke-width:1.0;"/><ellipse cx="103" cy="104.5" fill="#A80036" rx="3" ry="3" style="stroke:#A80036;stroke-width:1.0;"/><path d="M259.5,124.5 L272.5,124.5 C321.9912,124.5 377.9662,124.5 420.0391,124.5 " fill="none" style="stroke:#A80036;stroke-width:1.0;stroke-dasharray:3.0,3.0;"/><path d="M420.0391,127.5758 L422.346,124.5 L420.0391,121.4242 L427.7286,124.5 L420.0391,127.5758 " fill="#A80036" style="stroke:#A80036;stroke-width:1.0;"/><ellipse cx="259.5" cy="124.5" fill="#A80036" rx="3" ry="3" style="stroke:#A80036;stroke-width:1.0;"/><path d="M103,124.5 L116,124.5 C136.2507,124.5 158.5702,124.5 177.886,124.5 " fill="none" style="stroke:#A80036;stroke-width:1.0;stroke-dasharray:3.0,3.0;"/><path d="M177.886,127.5086 L180.1424,124.5 L177.886,121.4914 L185.4075,124.5 L177.886,127.5086 " fill="#A80036" style="stroke:#A80036;stroke-width:1.0;"/><ellipse cx="103" cy="124.5" fill="#A80036" rx="3" ry="3" style="stroke:#A80036;stroke-width:1.0;"/><path d="M486,172.5 L499,172.5 C576.6467,172.5 666.0972,154.5436 715.5826,142.9992 " fill="none" style="stroke:#A80036;stroke-width:1.0;stroke-dasharray:3.0,3.0;"/><path d="M716.3002,146.0356 L717.8599,142.461 L714.865,139.9628 L723.1736,141.2051 L716.3002,146.0356 " fill="#A80036" style="stroke:#A80036;stroke-width:1.0;"/><ellipse cx="486" cy="172.5" fill="#A80036" rx="3" ry="3" style="stroke:#A80036;stroke-width:1.0;"/><path d="M486,192.5 L499,192.5 C563.721,192.5 637.7001,192.5 689.1529,192.5 " fill="none" style="stroke:#A80036;stroke-width:1.0;stroke-dasharray:3.0,3.0;"/><path d="M689.1529,195.5966 L691.4753,192.5 L689.1529,189.4034 L696.8944,192.5 L689.1529,195.5966 " fill="#A80036" style="stroke:#A80036;stroke-width:1.0;"/><ellipse cx="486" cy="192.5" fill="#A80036" rx="3" ry="3" style="stroke:#A80036;stroke-width:1.0;"/><path d="M486,213.5 L499,213.5 C552.6426,213.5 611.9548,221.8602 659.8163,230.738 " fill="none" style="stroke:#A80036;stroke-width:1.0;stroke-dasharray:3.0,3.0;"/><path d="M659.245,233.7702 L662.0904,231.1664 L660.3875,227.7058 L667.3968,232.166 L659.245,233.7702 " fill="#A80036" style="stroke:#A80036;stroke-width:1.0;"/><ellipse cx="486" cy="213.5" fill="#A80036" rx="3" ry="3" style="stroke:#A80036;stroke-width:1.0;"/><path d="M292,188.5 L305,188.5 C363.7922,188.5 433.3444,191.1983 466.1195,192.6305 " fill="none" style="stroke:#A80036;stroke-width:1.0;stroke-dasharray:3.0,3.0;"/><path d="M465.9857,195.635 L468.3729,192.7308 L466.2533,189.626 L473.6308,192.9649 L465.9857,195.635 " fill="#A80036" style="stroke:#A80036;stroke-width:1.0;"/><ellipse cx="292" cy="188.5" fill="#A80036" rx="3" ry="3" style="stroke:#A80036;stroke-width:1.0;"/><path d="M103,145.5 L116,145.5 C134.9007,145.5 154.89,149.9139 172.6437,155.5131 " fill="none" style="stroke:#A80036;stroke-width:1.0;stroke-dasharray:3.0,3.0;"/><path d="M171.6586,158.4979 L174.8823,156.2519 L173.6288,152.5282 L180.1058,157.9759 L171.6586,158.4979 " fill="#A80036" style="stroke:#A80036;stroke-width:1.0;"/><ellipse cx="103" cy="145.5" fill="#A80036" rx="3" ry="3" style="stroke:#A80036;stroke-width:1.0;"/><!--MD5=[045ab9e380939a687de329deaf8780a9]
PlantUML version 1.2020.26(Mon Dec 21 12:45:07 EST 2020)
(GPL source distribution)
Java Runtime: OpenJDK Runtime Environment
JVM: OpenJDK 64-Bit Server VM
Default Encoding: UTF-8
Language: en
Country: CA
--></g></svg>