<?xml version="1.0" encoding="UTF-8" standalone="no"?><svg xmlns="http://www.w3.org/2000/svg" xmlns:xlink="http://www.w3.org/1999/xlink" contentScriptType="application/ecmascript" contentStyleType="text/css" height="518px" preserveAspectRatio="none" style="width:1057px;height:518px;" version="1.1" viewBox="0 0 1057 518" width="1057px" zoomAndPan="magnify"><defs><filter height="300%" id="f3ugix6g55tpj" width="300%" x="-1" y="-1"><feGaussianBlur result="blurOut" stdDeviation="2.0"/><feColorMatrix in="blurOut" result="blurOut2" type="matrix" values="0 0 0 0 0 0 0 0 0 0 0 0 0 0 0 0 0 0 .4 0"/><feOffset dx="4.0" dy="4.0" in="blurOut2" result="blurOut3"/><feBlend in="SourceGraphic" in2="blurOut3" mode="normal"/></filter></defs><g><rect fill="#FFFFFF" filter="url(#f3ugix6g55tpj)" height="134.5313" style="stroke:#A80036;stroke-width:1.0;" width="10" x="229.5" y="293.2266"/><rect fill="#FFFFFF" filter="url(#f3ugix6g55tpj)" height="58.2656" style="stroke:#A80036;stroke-width:1.0;" width="10" x="530.5" y="369.4922"/><line style="stroke:#A80036;stroke-width:1.0;stroke-dasharray:5.0,5.0;" x1="35" x2="35" y1="40.2969" y2="474.8906"/><line style="stroke:#A80036;stroke-width:1.0;stroke-dasharray:5.0,5.0;" x1="234" x2="234" y1="40.2969" y2="474.8906"/><line style="stroke:#A80036;stroke-width:1.0;stroke-dasharray:5.0,5.0;" x1="535.5" x2="535.5" y1="40.2969" y2="474.8906"/><line style="stroke:#A80036;stroke-width:1.0;stroke-dasharray:5.0,5.0;" x1="1008.5" x2="1008.5" y1="40.2969" y2="474.8906"/><rect fill="#FEFECE" filter="url(#f3ugix6g55tpj)" height="30.2969" style="stroke:#A80036;stroke-width:1.5;" width="57" x="5" y="5"/><text fill="#000000" font-family="sans-serif" font-size="14" lengthAdjust="spacingAndGlyphs" textLength="43" x="12" y="24.9951">Drone</text><rect fill="#FEFECE" filter="url(#f3ugix6g55tpj)" height="30.2969" style="stroke:#A80036;stroke-width:1.5;" width="57" x="5" y="473.8906"/><text fill="#000000" font-family="sans-serif" font-size="14" lengthAdjust="spacingAndGlyphs" textLength="43" x="12" y="493.8857">Drone</text><rect fill="#FEFECE" filter="url(#f3ugix6g55tpj)" height="30.2969" style="stroke:#A80036;stroke-width:1.5;" width="41" x="212" y="5"/><text fill="#000000" font-family="sans-serif" font-size="14" lengthAdjust="spacingAndGlyphs" textLength="27" x="219" y="24.9951">App</text><rect fill="#FEFECE" filter="url(#f3ugix6g55tpj)" height="30.2969" style="stroke:#A80036;stroke-width:1.5;" width="41" x="212" y="473.8906"/><text fill="#000000" font-family="sans-serif" font-size="14" lengthAdjust="spacingAndGlyphs" textLength="27" x="219" y="493.8857">App</text><rect fill="#FEFECE" filter="url(#f3ugix6g55tpj)" height="30.2969" style="stroke:#A80036;stroke-width:1.5;" width="58" x="504.5" y="5"/><text fill="#000000" font-family="sans-serif" font-size="14" lengthAdjust="spacingAndGlyphs" textLength="44" x="511.5" y="24.9951">Server</text><rect fill="#FEFECE" filter="url(#f3ugix6g55tpj)" height="30.2969" style="stroke:#A80036;stroke-width:1.5;" width="58" x="504.5" y="473.8906"/><text fill="#000000" font-family="sans-serif" font-size="14" lengthAdjust="spacingAndGlyphs" textLength="44" x="511.5" y="493.8857">Server</text><rect fill="#FEFECE" filter="url(#f3ugix6g55tpj)" height="30.2969" style="stroke:#A80036;stroke-width:1.5;" width="74" x="969.5" y="5"/><text fill="#000000" font-family="sans-serif" font-size="14" lengthAdjust="spacingAndGlyphs" textLength="60" x="976.5" y="24.9951">AuditLog</text><rect fill="#FEFECE" filter="url(#f3ugix6g55tpj)" height="30.2969" style="stroke:#A80036;stroke-width:1.5;" width="74" x="969.5" y="473.8906"/><text fill="#000000" font-family="sans-serif" font-size="14" lengthAdjust="spacingAndGlyphs" textLength="60" x="976.5" y="493.8857">AuditLog</text><rect fill="#FFFFFF" filter="url(#f3ugix6g55tpj)" height="134.5313" style="stroke:#A80036;stroke-width:1.0;" width="10" x="229.5" y="293.2266"/><rect fill="#FFFFFF" filter="url(#f3ugix6g55tpj)" height="58.2656" style="stroke:#A80036;stroke-width:1.0;" width="10" x="530.5" y="369.4922"/><line style="stroke:#A80036;stroke-width:1.0;" x1="35.5" x2="77.5" y1="71.4297" y2="71.4297"/><line style="stroke:#A80036;stroke-width:1.0;" x1="77.5" x2="77.5" y1="71.4297" y2="84.4297"/><line style="stroke:#A80036;stroke-width:1.0;" x1="36.5" x2="77.5" y1="84.4297" y2="84.4297"/><polygon fill="#A80036" points="46.5,80.4297,36.5,84.4297,46.5,88.4297,42.5,84.4297" style="stroke:#A80036;stroke-width:1.0;"/><text fill="#000000" font-family="sans-serif" font-size="13" lengthAdjust="spacingAndGlyphs" textLength="76" x="42.5" y="66.3638">sleep(1000)</text><polygon fill="#A80036" points="222.5,109.5625,232.5,113.5625,222.5,113.5625" style="stroke:#A80036;stroke-width:1.0;"/><line style="stroke:#A80036;stroke-width:1.0;" x1="35.5" x2="233.5" y1="113.5625" y2="113.5625"/><text fill="#000000" font-family="sans-serif" font-size="13" lengthAdjust="spacingAndGlyphs" textLength="175" x="42.5" y="108.4966">broadcast(droneEncrypted)</text><line style="stroke:#A80036;stroke-width:1.0;" x1="35.5" x2="77.5" y1="142.6953" y2="142.6953"/><line style="stroke:#A80036;stroke-width:1.0;" x1="77.5" x2="77.5" y1="142.6953" y2="155.6953"/><line style="stroke:#A80036;stroke-width:1.0;" x1="36.5" x2="77.5" y1="155.6953" y2="155.6953"/><polygon fill="#A80036" points="46.5,151.6953,36.5,155.6953,46.5,159.6953,42.5,155.6953" style="stroke:#A80036;stroke-width:1.0;"/><text fill="#000000" font-family="sans-serif" font-size="13" lengthAdjust="spacingAndGlyphs" textLength="76" x="42.5" y="137.6294">sleep(1000)</text><polygon fill="#A80036" points="222.5,180.8281,232.5,184.8281,222.5,184.8281" style="stroke:#A80036;stroke-width:1.0;"/><line style="stroke:#A80036;stroke-width:1.0;" x1="35.5" x2="233.5" y1="184.8281" y2="184.8281"/><text fill="#000000" font-family="sans-serif" font-size="13" lengthAdjust="spacingAndGlyphs" textLength="175" x="42.5" y="179.7622">broadcast(droneEncrypted)</text><line style="stroke:#A80036;stroke-width:1.0;" x1="35.5" x2="77.5" y1="213.9609" y2="213.9609"/><line style="stroke:#A80036;stroke-width:1.0;" x1="77.5" x2="77.5" y1="213.9609" y2="226.9609"/><line style="stroke:#A80036;stroke-width:1.0;" x1="36.5" x2="77.5" y1="226.9609" y2="226.9609"/><polygon fill="#A80036" points="46.5,222.9609,36.5,226.9609,46.5,230.9609,42.5,226.9609" style="stroke:#A80036;stroke-width:1.0;"/><text fill="#000000" font-family="sans-serif" font-size="13" lengthAdjust="spacingAndGlyphs" textLength="76" x="42.5" y="208.895">sleep(1000)</text><polygon fill="#A80036" points="222.5,252.0938,232.5,256.0938,222.5,256.0938" style="stroke:#A80036;stroke-width:1.0;"/><line style="stroke:#A80036;stroke-width:1.0;" x1="35.5" x2="233.5" y1="256.0938" y2="256.0938"/><text fill="#000000" font-family="sans-serif" font-size="13" lengthAdjust="spacingAndGlyphs" textLength="175" x="42.5" y="251.0278">broadcast(droneEncrypted)</text><line style="stroke:#A80036;stroke-width:1.0;" x1="234.5" x2="281.5" y1="280.2266" y2="280.2266"/><line style="stroke:#A80036;stroke-width:1.0;" x1="281.5" x2="281.5" y1="280.2266" y2="293.2266"/><line style="stroke:#A80036;stroke-width:1.0;" x1="240.5" x2="281.5" y1="293.2266" y2="293.2266"/><polygon fill="#A80036" points="250.5,289.2266,240.5,293.2266,250.5,297.2266,246.5,293.2266" style="stroke:#A80036;stroke-width:1.0;"/><text fill="#000000" font-family="sans-serif" font-size="13" lengthAdjust="spacingAndGlyphs" textLength="136" x="246.5" y="275.1606">UI Tap "LocateDrone"</text><line style="stroke:#A80036;stroke-width:1.0;" x1="239.5" x2="281.5" y1="327.3594" y2="327.3594"/><line style="stroke:#A80036;stroke-width:1.0;" x1="281.5" x2="281.5" y1="327.3594" y2="340.3594"/><line style="stroke:#A80036;stroke-width:1.0;" x1="240.5" x2="281.5" y1="340.3594" y2="340.3594"/><polygon fill="#A80036" points="250.5,336.3594,240.5,340.3594,250.5,344.3594,246.5,340.3594" style="stroke:#A80036;stroke-width:1.0;"/><text fill="#000000" font-family="sans-serif" font-size="13" lengthAdjust="spacingAndGlyphs" textLength="147" x="246.5" y="322.2935">parse(droneEncrypted)</text><polygon fill="#A80036" points="518.5,365.4922,528.5,369.4922,518.5,373.4922,522.5,369.4922" style="stroke:#A80036;stroke-width:1.0;"/><line style="stroke:#A80036;stroke-width:1.0;" x1="239.5" x2="524.5" y1="369.4922" y2="369.4922"/><text fill="#000000" font-family="sans-serif" font-size="13" lengthAdjust="spacingAndGlyphs" textLength="254" x="246.5" y="364.4263">Decrypt("EncryptedBase64Payload==")</text><polygon fill="#A80036" points="996.5,394.625,1006.5,398.625,996.5,398.625" style="stroke:#A80036;stroke-width:1.0;"/><line style="stroke:#A80036;stroke-width:1.0;" x1="540.5" x2="1007.5" y1="398.625" y2="398.625"/><text fill="#000000" font-family="sans-serif" font-size="13" lengthAdjust="spacingAndGlyphs" textLength="444" x="547.5" y="393.5591">{"client": "joe@yyz-security.ca", "request": "base64-sha256-sum=="}</text><polygon fill="#A80036" points="245.5,423.7578,235.5,427.7578,245.5,431.7578,241.5,427.7578" style="stroke:#A80036;stroke-width:1.0;"/><line style="stroke:#A80036;stroke-width:1.0;" x1="239.5" x2="534.5" y1="427.7578" y2="427.7578"/><text fill="#000000" font-family="sans-serif" font-size="13" lengthAdjust="spacingAndGlyphs" textLength="267" x="251.5" y="422.6919">{"location": { "lat": 4.4, "longitude": 44.7 }</text><polygon fill="#A80036" points="546.5,452.8906,536.5,456.8906,546.5,456.8906" style="stroke:#A80036;stroke-width:1.0;"/><line style="stroke:#A80036;stroke-width:1.0;" x1="535.5" x2="1007.5" y1="456.8906" y2="456.8906"/><text fill="#000000" font-family="sans-serif" font-size="13" lengthAdjust="spacingAndGlyphs" textLength="236" x="552.5" y="451.8247">{"saved": "base64-sha256-sum=="}</text><!--MD5=[0b1dde34a2fef8a81d0c8a936593c372]
@startuml droneEncryptedFlow
' Trusted API Server could be run by drone manufactorer or by a comunity.
' Will submit Audit Logs for trancpanency when authorities try to resolve drone pilot location
Drone -> Drone : sleep(1000)
Drone -\ App : broadcast(droneEncrypted)
Drone -> Drone : sleep(1000)
Drone -\ App : broadcast(droneEncrypted)
Drone -> Drone : sleep(1000)
Drone -\ App : broadcast(droneEncrypted)
App -> App ++ : UI Tap "LocateDrone"
App -> App: parse(droneEncrypted)
App -> Server ++ : Decrypt("EncryptedBase64Payload==")
Server -\ AuditLog : {"client": "joe@yyz-security.ca", "request": "base64-sha256-sum=="}
Server -> App - - : {"location": { "lat": 4.4, "longitude": 44.7 }
deactivate App
AuditLog -\ Server: {"saved": "base64-sha256-sum=="}
@enduml

@startuml droneEncryptedFlow
Drone -> Drone : sleep(1000)
Drone -\ App : broadcast(droneEncrypted)
Drone -> Drone : sleep(1000)
Drone -\ App : broadcast(droneEncrypted)
Drone -> Drone : sleep(1000)
Drone -\ App : broadcast(droneEncrypted)
App -> App ++ : UI Tap "LocateDrone"
App -> App: parse(droneEncrypted)
App -> Server ++ : Decrypt("EncryptedBase64Payload==")
Server -\ AuditLog : {"client": "joe@yyz-security.ca", "request": "base64-sha256-sum=="}
Server -> App - - : {"location": { "lat": 4.4, "longitude": 44.7 }
deactivate App
AuditLog -\ Server: {"saved": "base64-sha256-sum=="}
@enduml

PlantUML version 1.2020.26(Mon Dec 21 12:45:07 EST 2020)
(GPL source distribution)
Java Runtime: OpenJDK Runtime Environment
JVM: OpenJDK 64-Bit Server VM
Default Encoding: UTF-8
Language: en
Country: CA
--></g></svg>