<?xml version="1.0" encoding="UTF-8" standalone="no"?><svg xmlns="http://www.w3.org/2000/svg" xmlns:xlink="http://www.w3.org/1999/xlink" contentScriptType="application/ecmascript" contentStyleType="text/css" height="283px" preserveAspectRatio="none" style="width:836px;height:283px;" version="1.1" viewBox="0 0 836 283" width="836px" zoomAndPan="magnify"><defs/><g><text fill="#000000" font-family="sans-serif" font-size="14" lengthAdjust="spacingAndGlyphs" textLength="59" x="22" y="109.9951">operator</text><text fill="#000000" font-family="sans-serif" font-size="14" lengthAdjust="spacingAndGlyphs" textLength="0" x="110" y="109.9951"/><line style="stroke:#A80036;stroke-width:1.0;" x1="93" x2="93" y1="95" y2="115.2969"/><line style="stroke:#A80036;stroke-width:1.0;" x1="10" x2="115" y1="115.2969" y2="115.2969"/><text fill="#000000" font-family="sans-serif" font-size="14" lengthAdjust="spacingAndGlyphs" textLength="41" x="31" y="130.292">drone</text><text fill="#000000" font-family="sans-serif" font-size="14" lengthAdjust="spacingAndGlyphs" textLength="0" x="110" y="130.292"/><line style="stroke:#A80036;stroke-width:1.0;" x1="93" x2="93" y1="115.2969" y2="135.5938"/><line style="stroke:#A80036;stroke-width:1.0;" x1="10" x2="115" y1="135.5938" y2="135.5938"/><text fill="#000000" font-family="sans-serif" font-size="14" lengthAdjust="spacingAndGlyphs" textLength="73" x="15" y="150.5889">encryption</text><text fill="#000000" font-family="sans-serif" font-size="14" lengthAdjust="spacingAndGlyphs" textLength="0" x="110" y="150.5889"/><line style="stroke:#A80036;stroke-width:1.0;" x1="93" x2="93" y1="135.5938" y2="155.8906"/><rect fill="none" height="60.8906" rx="5" ry="5" style="stroke:#A80036;stroke-width:1.5;" width="105" x="10" y="95"/><text fill="#000000" font-family="sans-serif" font-size="14" lengthAdjust="spacingAndGlyphs" textLength="65" x="164.5" y="24.9951">firstName</text><text fill="#000000" font-family="sans-serif" font-size="14" lengthAdjust="spacingAndGlyphs" textLength="30" x="239.5" y="24.9951">John</text><line style="stroke:#A80036;stroke-width:1.0;" x1="234.5" x2="234.5" y1="10" y2="30.2969"/><line style="stroke:#A80036;stroke-width:1.0;" x1="159.5" x2="279.5" y1="30.2969" y2="30.2969"/><text fill="#000000" font-family="sans-serif" font-size="14" lengthAdjust="spacingAndGlyphs" textLength="64" x="165" y="45.292">lastName</text><text fill="#000000" font-family="sans-serif" font-size="14" lengthAdjust="spacingAndGlyphs" textLength="35" x="239.5" y="45.292">Steel</text><line style="stroke:#A80036;stroke-width:1.0;" x1="234.5" x2="234.5" y1="30.2969" y2="50.5938"/><line style="stroke:#A80036;stroke-width:1.0;" x1="159.5" x2="279.5" y1="50.5938" y2="50.5938"/><text fill="#000000" font-family="sans-serif" font-size="14" lengthAdjust="spacingAndGlyphs" textLength="51" x="171.5" y="65.5889">callsign</text><text fill="#000000" font-family="sans-serif" font-size="14" lengthAdjust="spacingAndGlyphs" textLength="30" x="239.5" y="65.5889">jskw</text><line style="stroke:#A80036;stroke-width:1.0;" x1="234.5" x2="234.5" y1="50.5938" y2="70.8906"/><line style="stroke:#A80036;stroke-width:1.0;" x1="159.5" x2="279.5" y1="70.8906" y2="70.8906"/><text fill="#000000" font-family="sans-serif" font-size="14" lengthAdjust="spacingAndGlyphs" textLength="54" x="170" y="85.8857">location</text><text fill="#000000" font-family="sans-serif" font-size="14" lengthAdjust="spacingAndGlyphs" textLength="0" x="251.5" y="85.8857"/><line style="stroke:#A80036;stroke-width:1.0;" x1="234.5" x2="234.5" y1="70.8906" y2="91.1875"/><rect fill="none" height="81.1875" rx="5" ry="5" style="stroke:#A80036;stroke-width:1.5;" width="120" x="159.5" y="10"/><text fill="#000000" font-family="sans-serif" font-size="14" lengthAdjust="spacingAndGlyphs" textLength="69" x="329" y="80.4951">ciphertext</text><text fill="#000000" font-family="sans-serif" font-size="14" lengthAdjust="spacingAndGlyphs" textLength="200" x="408" y="80.4951">EncryptedBase64Payload==</text><line style="stroke:#A80036;stroke-width:1.0;" x1="403" x2="403" y1="65.5" y2="85.7969"/><rect fill="none" height="20.2969" rx="5" ry="5" style="stroke:#A80036;stroke-width:1.5;" width="289" x="324" y="65.5"/><text fill="#000000" font-family="sans-serif" font-size="14" lengthAdjust="spacingAndGlyphs" textLength="54" x="181.5" y="129.4951">location</text><text fill="#000000" font-family="sans-serif" font-size="14" lengthAdjust="spacingAndGlyphs" textLength="0" x="257.5" y="129.4951"/><line style="stroke:#A80036;stroke-width:1.0;" x1="240.5" x2="240.5" y1="114.5" y2="134.7969"/><rect fill="none" height="20.2969" rx="5" ry="5" style="stroke:#A80036;stroke-width:1.5;" width="86" x="176.5" y="114.5"/><text fill="#000000" font-family="sans-serif" font-size="14" lengthAdjust="spacingAndGlyphs" textLength="16" x="440" y="118.9951">lat</text><text fill="#000000" font-family="sans-serif" font-size="14" lengthAdjust="spacingAndGlyphs" textLength="22" x="490.5" y="118.9951">4.2</text><line style="stroke:#A80036;stroke-width:1.0;" x1="485.5" x2="485.5" y1="104" y2="124.2969"/><line style="stroke:#A80036;stroke-width:1.0;" x1="410.5" x2="526.5" y1="124.2969" y2="124.2969"/><text fill="#000000" font-family="sans-serif" font-size="14" lengthAdjust="spacingAndGlyphs" textLength="65" x="415.5" y="139.292">longitude</text><text fill="#000000" font-family="sans-serif" font-size="14" lengthAdjust="spacingAndGlyphs" textLength="31" x="490.5" y="139.292">44.5</text><line style="stroke:#A80036;stroke-width:1.0;" x1="485.5" x2="485.5" y1="124.2969" y2="144.5938"/><rect fill="none" height="40.5938" rx="5" ry="5" style="stroke:#A80036;stroke-width:1.5;" width="116" x="410.5" y="104"/><text fill="#000000" font-family="sans-serif" font-size="14" lengthAdjust="spacingAndGlyphs" textLength="81" x="160" y="172.9951">isEncrypted</text><text fill="#000000" font-family="sans-serif" font-size="14" lengthAdjust="spacingAndGlyphs" textLength="28" x="254" y="172.9951">true</text><line style="stroke:#A80036;stroke-width:1.0;" x1="249" x2="249" y1="158" y2="178.2969"/><line style="stroke:#A80036;stroke-width:1.0;" x1="152" x2="287" y1="178.2969" y2="178.2969"/><text fill="#000000" font-family="sans-serif" font-size="14" lengthAdjust="spacingAndGlyphs" textLength="87" x="157" y="193.292">sessionKeys</text><text fill="#000000" font-family="sans-serif" font-size="14" lengthAdjust="spacingAndGlyphs" textLength="0" x="266" y="193.292"/><line style="stroke:#A80036;stroke-width:1.0;" x1="249" x2="249" y1="178.2969" y2="198.5938"/><rect fill="none" height="40.5938" rx="5" ry="5" style="stroke:#A80036;stroke-width:1.5;" width="135" x="152" y="158"/><text fill="#000000" font-family="sans-serif" font-size="14" lengthAdjust="spacingAndGlyphs" textLength="0" x="473.5" y="177.9951"/><line style="stroke:#A80036;stroke-width:1.0;" x1="456.5" x2="478.5" y1="183.2969" y2="183.2969"/><text fill="#000000" font-family="sans-serif" font-size="14" lengthAdjust="spacingAndGlyphs" textLength="0" x="473.5" y="198.292"/><line style="stroke:#A80036;stroke-width:1.0;" x1="456.5" x2="478.5" y1="203.5938" y2="203.5938"/><text fill="#000000" font-family="sans-serif" font-size="14" lengthAdjust="spacingAndGlyphs" textLength="0" x="473.5" y="218.5889"/><rect fill="none" height="60.8906" rx="5" ry="5" style="stroke:#A80036;stroke-width:1.5;" width="22" x="456.5" y="163"/><text fill="#000000" font-family="sans-serif" font-size="14" lengthAdjust="spacingAndGlyphs" textLength="48" x="713" y="127.9951">yybKey</text><line style="stroke:#A80036;stroke-width:1.0;" x1="706" x2="768" y1="133.2969" y2="133.2969"/><text fill="#000000" font-family="sans-serif" font-size="14" lengthAdjust="spacingAndGlyphs" textLength="52" x="711" y="148.292">base64</text><rect fill="none" height="40.5938" rx="5" ry="5" style="stroke:#A80036;stroke-width:1.5;" width="62" x="706" y="113"/><text fill="#000000" font-family="sans-serif" font-size="14" lengthAdjust="spacingAndGlyphs" textLength="105" x="684.5" y="186.9951">municipalityKey</text><line style="stroke:#A80036;stroke-width:1.0;" x1="679.5" x2="794.5" y1="192.2969" y2="192.2969"/><text fill="#000000" font-family="sans-serif" font-size="14" lengthAdjust="spacingAndGlyphs" textLength="52" x="711" y="207.292">base64</text><rect fill="none" height="40.5938" rx="5" ry="5" style="stroke:#A80036;stroke-width:1.5;" width="115" x="679.5" y="172"/><text fill="#000000" font-family="sans-serif" font-size="14" lengthAdjust="spacingAndGlyphs" textLength="164" x="655" y="245.9951">myTrustedApiServerKey</text><line style="stroke:#A80036;stroke-width:1.0;" x1="650" x2="824" y1="251.2969" y2="251.2969"/><text fill="#000000" font-family="sans-serif" font-size="14" lengthAdjust="spacingAndGlyphs" textLength="52" x="711" y="266.292">base64</text><rect fill="none" height="40.5938" rx="5" ry="5" style="stroke:#A80036;stroke-width:1.5;" width="174" x="650" y="231"/><path d="M268,80.5 L281,80.5 C292.6321,80.5 304.6696,80.4021 316.7716,80.2338 " fill="none" style="stroke:#A80036;stroke-width:1.0;stroke-dasharray:3.0,3.0;"/><path d="M316.8171,83.25 L319.0338,80.1997 L316.7261,77.2176 L324.3121,80.1201 L316.8171,83.25 " fill="#A80036" style="stroke:#A80036;stroke-width:1.0;"/><ellipse cx="268" cy="80.5" fill="#A80036" rx="3" ry="3" style="stroke:#A80036;stroke-width:1.0;"/><path d="M103,104.5 L116,104.5 C130.3565,104.5 144.6841,100.334 157.8912,94.3162 " fill="none" style="stroke:#A80036;stroke-width:1.0;stroke-dasharray:3.0,3.0;"/><path d="M159.2126,97.0357 L159.9308,93.3252 L156.5699,91.5968 L164.6898,91.0128 L159.2126,97.0357 " fill="#A80036" style="stroke:#A80036;stroke-width:1.0;"/><ellipse cx="103" cy="104.5" fill="#A80036" rx="3" ry="3" style="stroke:#A80036;stroke-width:1.0;"/><path d="M251,124.5 L264,124.5 C310.4844,124.5 362.9268,124.5 402.9993,124.5 " fill="none" style="stroke:#A80036;stroke-width:1.0;stroke-dasharray:3.0,3.0;"/><path d="M402.9993,127.6377 L405.3525,124.5 L402.9993,121.3623 L410.8434,124.5 L402.9993,127.6377 " fill="#A80036" style="stroke:#A80036;stroke-width:1.0;"/><ellipse cx="251" cy="124.5" fill="#A80036" rx="3" ry="3" style="stroke:#A80036;stroke-width:1.0;"/><path d="M103,124.5 L116,124.5 C133.3678,124.5 152.383,124.5 169.2956,124.5 " fill="none" style="stroke:#A80036;stroke-width:1.0;stroke-dasharray:3.0,3.0;"/><path d="M169.2956,127.5437 L171.5783,124.5 L169.2956,121.4563 L176.9048,124.5 L169.2956,127.5437 " fill="#A80036" style="stroke:#A80036;stroke-width:1.0;"/><ellipse cx="103" cy="124.5" fill="#A80036" rx="3" ry="3" style="stroke:#A80036;stroke-width:1.0;"/><path d="M469,172.5 L482,172.5 C559.6467,172.5 649.0972,154.5436 698.5826,142.9992 " fill="none" style="stroke:#A80036;stroke-width:1.0;stroke-dasharray:3.0,3.0;"/><path d="M699.3002,146.0356 L700.8599,142.461 L697.865,139.9628 L706.1736,141.2051 L699.3002,146.0356 " fill="#A80036" style="stroke:#A80036;stroke-width:1.0;"/><ellipse cx="469" cy="172.5" fill="#A80036" rx="3" ry="3" style="stroke:#A80036;stroke-width:1.0;"/><path d="M469,192.5 L482,192.5 C546.721,192.5 620.7001,192.5 672.1529,192.5 " fill="none" style="stroke:#A80036;stroke-width:1.0;stroke-dasharray:3.0,3.0;"/><path d="M672.1529,195.5966 L674.4753,192.5 L672.1529,189.4034 L679.8944,192.5 L672.1529,195.5966 " fill="#A80036" style="stroke:#A80036;stroke-width:1.0;"/><ellipse cx="469" cy="192.5" fill="#A80036" rx="3" ry="3" style="stroke:#A80036;stroke-width:1.0;"/><path d="M469,213.5 L482,213.5 C535.6426,213.5 594.9548,221.8602 642.8163,230.738 " fill="none" style="stroke:#A80036;stroke-width:1.0;stroke-dasharray:3.0,3.0;"/><path d="M642.245,233.7702 L645.0904,231.1664 L643.3875,227.7058 L650.3968,232.166 L642.245,233.7702 " fill="#A80036" style="stroke:#A80036;stroke-width:1.0;"/><ellipse cx="469" cy="213.5" fill="#A80036" rx="3" ry="3" style="stroke:#A80036;stroke-width:1.0;"/><path d="M275,188.5 L288,188.5 C346.7922,188.5 416.3444,191.1983 449.1195,192.6305 " fill="none" style="stroke:#A80036;stroke-width:1.0;stroke-dasharray:3.0,3.0;"/><path d="M448.9857,195.635 L451.3729,192.7308 L449.2533,189.626 L456.6308,192.9649 L448.9857,195.635 " fill="#A80036" style="stroke:#A80036;stroke-width:1.0;"/><ellipse cx="275" cy="188.5" fill="#A80036" rx="3" ry="3" style="stroke:#A80036;stroke-width:1.0;"/><path d="M103,145.5 L116,145.5 C133.4233,145.5 151.7478,149.8354 168.0313,155.3634 " fill="none" style="stroke:#A80036;stroke-width:1.0;stroke-dasharray:3.0,3.0;"/><path d="M166.9863,158.2943 L170.2295,156.1471 L169.0763,152.4324 L175.3587,157.9759 L166.9863,158.2943 " fill="#A80036" style="stroke:#A80036;stroke-width:1.0;"/><ellipse cx="103" cy="145.5" fill="#A80036" rx="3" ry="3" style="stroke:#A80036;stroke-width:1.0;"/><!--MD5=[d41d8cd98f00b204e9800998ecf8427e]
--></g></svg>