<?xml version="1.0" encoding="UTF-8" standalone="no"?><svg xmlns="http://www.w3.org/2000/svg" xmlns:xlink="http://www.w3.org/1999/xlink" contentScriptType="application/ecmascript" contentStyleType="text/css" height="166px" preserveAspectRatio="none" style="width:423px;height:166px;" version="1.1" viewBox="0 0 423 166" width="423px" zoomAndPan="magnify"><defs/><g><text fill="#000000" font-family="sans-serif" font-size="14" lengthAdjust="spacingAndGlyphs" textLength="59" x="15" y="84.9951">operator</text><text fill="#000000" font-family="sans-serif" font-size="14" lengthAdjust="spacingAndGlyphs" textLength="0" x="96" y="84.9951"/><line style="stroke:#A80036;stroke-width:1.0;" x1="79" x2="79" y1="70" y2="90.2969"/><line style="stroke:#A80036;stroke-width:1.0;" x1="10" x2="101" y1="90.2969" y2="90.2969"/><text fill="#000000" font-family="sans-serif" font-size="14" lengthAdjust="spacingAndGlyphs" textLength="41" x="24" y="105.292">drone</text><text fill="#000000" font-family="sans-serif" font-size="14" lengthAdjust="spacingAndGlyphs" textLength="0" x="96" y="105.292"/><line style="stroke:#A80036;stroke-width:1.0;" x1="79" x2="79" y1="90.2969" y2="110.5938"/><rect fill="none" height="40.5938" rx="5" ry="5" style="stroke:#A80036;stroke-width:1.5;" width="91" x="10" y="70"/><text fill="#000000" font-family="sans-serif" font-size="14" lengthAdjust="spacingAndGlyphs" textLength="65" x="143" y="24.9951">firstName</text><text fill="#000000" font-family="sans-serif" font-size="14" lengthAdjust="spacingAndGlyphs" textLength="30" x="218" y="24.9951">John</text><line style="stroke:#A80036;stroke-width:1.0;" x1="213" x2="213" y1="10" y2="30.2969"/><line style="stroke:#A80036;stroke-width:1.0;" x1="138" x2="258" y1="30.2969" y2="30.2969"/><text fill="#000000" font-family="sans-serif" font-size="14" lengthAdjust="spacingAndGlyphs" textLength="64" x="143.5" y="45.292">lastName</text><text fill="#000000" font-family="sans-serif" font-size="14" lengthAdjust="spacingAndGlyphs" textLength="35" x="218" y="45.292">Steel</text><line style="stroke:#A80036;stroke-width:1.0;" x1="213" x2="213" y1="30.2969" y2="50.5938"/><line style="stroke:#A80036;stroke-width:1.0;" x1="138" x2="258" y1="50.5938" y2="50.5938"/><text fill="#000000" font-family="sans-serif" font-size="14" lengthAdjust="spacingAndGlyphs" textLength="51" x="150" y="65.5889">callsign</text><text fill="#000000" font-family="sans-serif" font-size="14" lengthAdjust="spacingAndGlyphs" textLength="30" x="218" y="65.5889">jskw</text><line style="stroke:#A80036;stroke-width:1.0;" x1="213" x2="213" y1="50.5938" y2="70.8906"/><line style="stroke:#A80036;stroke-width:1.0;" x1="138" x2="258" y1="70.8906" y2="70.8906"/><text fill="#000000" font-family="sans-serif" font-size="14" lengthAdjust="spacingAndGlyphs" textLength="54" x="148.5" y="85.8857">location</text><text fill="#000000" font-family="sans-serif" font-size="14" lengthAdjust="spacingAndGlyphs" textLength="0" x="230" y="85.8857"/><line style="stroke:#A80036;stroke-width:1.0;" x1="213" x2="213" y1="70.8906" y2="91.1875"/><rect fill="none" height="81.1875" rx="5" ry="5" style="stroke:#A80036;stroke-width:1.5;" width="120" x="138" y="10"/><text fill="#000000" font-family="sans-serif" font-size="14" lengthAdjust="spacingAndGlyphs" textLength="16" x="324.5" y="69.9951">lat</text><text fill="#000000" font-family="sans-serif" font-size="14" lengthAdjust="spacingAndGlyphs" textLength="22" x="375" y="69.9951">4.4</text><line style="stroke:#A80036;stroke-width:1.0;" x1="370" x2="370" y1="55" y2="75.2969"/><line style="stroke:#A80036;stroke-width:1.0;" x1="295" x2="411" y1="75.2969" y2="75.2969"/><text fill="#000000" font-family="sans-serif" font-size="14" lengthAdjust="spacingAndGlyphs" textLength="65" x="300" y="90.292">longitude</text><text fill="#000000" font-family="sans-serif" font-size="14" lengthAdjust="spacingAndGlyphs" textLength="31" x="375" y="90.292">44.7</text><line style="stroke:#A80036;stroke-width:1.0;" x1="370" x2="370" y1="75.2969" y2="95.5938"/><rect fill="none" height="40.5938" rx="5" ry="5" style="stroke:#A80036;stroke-width:1.5;" width="116" x="295" y="55"/><text fill="#000000" font-family="sans-serif" font-size="14" lengthAdjust="spacingAndGlyphs" textLength="54" x="160" y="134.4951">location</text><text fill="#000000" font-family="sans-serif" font-size="14" lengthAdjust="spacingAndGlyphs" textLength="0" x="236" y="134.4951"/><line style="stroke:#A80036;stroke-width:1.0;" x1="219" x2="219" y1="119.5" y2="139.7969"/><rect fill="none" height="20.2969" rx="5" ry="5" style="stroke:#A80036;stroke-width:1.5;" width="86" x="155" y="119.5"/><text fill="#000000" font-family="sans-serif" font-size="14" lengthAdjust="spacingAndGlyphs" textLength="16" x="324.5" y="128.9951">lat</text><text fill="#000000" font-family="sans-serif" font-size="14" lengthAdjust="spacingAndGlyphs" textLength="22" x="375" y="128.9951">4.2</text><line style="stroke:#A80036;stroke-width:1.0;" x1="370" x2="370" y1="114" y2="134.2969"/><line style="stroke:#A80036;stroke-width:1.0;" x1="295" x2="411" y1="134.2969" y2="134.2969"/><text fill="#000000" font-family="sans-serif" font-size="14" lengthAdjust="spacingAndGlyphs" textLength="65" x="300" y="149.292">longitude</text><text fill="#000000" font-family="sans-serif" font-size="14" lengthAdjust="spacingAndGlyphs" textLength="31" x="375" y="149.292">44.5</text><line style="stroke:#A80036;stroke-width:1.0;" x1="370" x2="370" y1="134.2969" y2="154.5938"/><rect fill="none" height="40.5938" rx="5" ry="5" style="stroke:#A80036;stroke-width:1.5;" width="116" x="295" y="114"/><path d="M246,80.5 L259,80.5 C268.2353,80.5 277.9765,80.2537 287.5441,79.8705 " fill="none" style="stroke:#A80036;stroke-width:1.0;stroke-dasharray:3.0,3.0;"/><path d="M287.6779,82.9197 L289.831,79.7702 L287.4103,76.8214 L295.167,79.5359 L287.6779,82.9197 " fill="#A80036" style="stroke:#A80036;stroke-width:1.0;"/><ellipse cx="246" cy="80.5" fill="#A80036" rx="3" ry="3" style="stroke:#A80036;stroke-width:1.0;"/><path d="M89,79.5 L102,79.5 C111.5964,79.5 121.5103,78.1427 131.1552,76.0154 " fill="none" style="stroke:#A80036;stroke-width:1.0;stroke-dasharray:3.0,3.0;"/><path d="M131.8621,78.9408 L133.3492,75.4853 L130.4484,73.0901 L138.4686,74.2483 L131.8621,78.9408 " fill="#A80036" style="stroke:#A80036;stroke-width:1.0;"/><ellipse cx="89" cy="79.5" fill="#A80036" rx="3" ry="3" style="stroke:#A80036;stroke-width:1.0;"/><path d="M229.5,129.5 L242.5,129.5 C257.1513,129.5 272.8891,129.9481 287.7496,130.5761 " fill="none" style="stroke:#A80036;stroke-width:1.0;stroke-dasharray:3.0,3.0;"/><path d="M287.6122,133.6484 L290.0538,130.6791 L287.8869,127.5038 L295.4303,130.9194 L287.6122,133.6484 " fill="#A80036" style="stroke:#A80036;stroke-width:1.0;"/><ellipse cx="229.5" cy="129.5" fill="#A80036" rx="3" ry="3" style="stroke:#A80036;stroke-width:1.0;"/><path d="M89,100.5 L102,100.5 C125.5572,100.5 151.0276,108.6789 169.7352,116.3497 " fill="none" style="stroke:#A80036;stroke-width:1.0;stroke-dasharray:3.0,3.0;"/><path d="M168.5322,119.1785 L171.8568,117.2519 L170.9382,113.5208 L176.8073,119.3572 L168.5322,119.1785 " fill="#A80036" style="stroke:#A80036;stroke-width:1.0;"/><ellipse cx="89" cy="100.5" fill="#A80036" rx="3" ry="3" style="stroke:#A80036;stroke-width:1.0;"/><!--MD5=[045ab9e380939a687de329deaf8780a9]
PlantUML version 1.2020.26(Mon Dec 21 12:45:07 EST 2020)
(GPL source distribution)
Java Runtime: OpenJDK Runtime Environment
JVM: OpenJDK 64-Bit Server VM
Default Encoding: UTF-8
Language: en
Country: CA
--></g></svg>